# xmcd CD database file
#
# Track frame offsets:
#	182
#	15910
#	31607
#	45910
#	62845
#	75312
#	90640
#	106890
#	124640
#	139445
#
# Disc length: 2110 seconds
#
# Revision: 3
# Processed by: cddbd v1.5.2PL0 Copyright (c) Steve Scherf et al.
# Submitted via: CDex 1.70beta2
#
DISCID=6a083c0a,6c083c0a
DTITLE=Hansi Hinterseer - Wenn man sich lieb hat
DYEAR=1995
DGENRE=Schlager
TTITLE0=Doch ich mach dich glücklich
TTITLE1=Du bist das schönste Mädchen
TTITLE2=Da wo die Berge sind
TTITLE3=Wenn man sich lieb hat
TTITLE4=Nicht so schnell Annabell
TTITLE5=Ein Leben mit dir
TTITLE6=Aber alles kam anders
TTITLE7=Du hast mich heut noch nicht geküsst
TTITLE8=Ich will dich ganz für mich allein
TTITLE9=Eine Nacht in monte Carlo
EXTD=YEAR: 1995
EXTT0=
EXTT1=
EXTT2=
EXTT3=
EXTT4=
EXTT5=
EXTT6=
EXTT7=
EXTT8=
EXTT9=
PLAYORDER=
